/* XPM */
static char *result[] = {
/* columns rows colors chars-per-pixel */
"32 32 8 1 ",
"  c #09080B",
". c #12111B",
"X c #1B1A2C",
"o c #20283D",
"O c #2A4C69",
"z c #2f429f",
"s c #414d86",
"a c #2d365f",
/* pixels */
"..oOOOOOOOo...ooo....... oXXX.o.",
".oooOOOOOOOo.oOOOo...ooo ooXXXo.",
" ooXXXXXXXXX.OOOOOo.oXXX ooXXXo.",
" ooXX.....XX.oXXXXO.oXXX oooooo ",
" ooX.....XXX.o...Xo oXXX oooooo ",
" .oooXXXXooo.X...Xo oXXX ooooo..",
"....saaz ....X...Xo .oo. .ooo...",
"OOOOoazoOOo..X..XXo          .oO",
"OOOoozoXXXXo.o..XXo          oOO",
"XXXXX.oX..Xo.o..XXo .oOOOo.  oOX",
"....X.oX..Xo oXXXXo oO+++Oo  ooX",
"...XX..XXX.azoXXXXo OOoXXXo  oo.",
"XXX..     aas.oooo. OooX.Xo  .oX",
"             aaassz.ooX...o     ",
"oo.  .ooO++++Ooo.z .oX...Xo .ooo",
"ooo .oOOOOOOOOOOo. .oX..XXo.oooo",
"XXo oooXXXXXoooOOo..oX..XXo.oXXX",
"XXo oo.........XOO..oXXXXXo.oX.X",
".Xo ooX.......XXoo..oXXXXXo.oX..",
"XXo ooXX....XXXXoo. .ooXXXo.oX..",
"Xo. ooXXXXXXXXXXo.   .oooo. .oXX",
"    oooooooXXXXX.               ",
"  .......... asz         .oOOo. ",
".oooOO++++++Oo.z .oOOOo. oOOOOo ",
"oXXXXXXXXXoOOOos oOOOOOo OXXXXo ",
"XXXXXXXXXXXXoOoz ooXXXoo OXX.Xo.",
"X..........Xoooz oXXXXXX oXX..X.",
"X..........Xoooa oXXXXXX oX...X.",
"XX.......XXoooos oXXXXXX oX...X.",
".XXXXXXXoooooo.s oXXXXXo oX...X.",
".......     ssssz.ooooo. oX...o.",
"............. aaszz...   oX...o."
};
