/* XPM */
static char *result[] = {
/* columns rows colors chars-per-pixel */
"32 32 8 1 ",
"  c #09080B",
". c #12111B",
"X c #1B1A2C",
"o c #20283D",
"O c #2A4C69",
"z c #2f429f",
"s c #414d86",
"a c #2d365f",
/* pixels */
"..oOOOOOOOo...ooo....... oXXX.oz",
".oooOOOOOOOo.oOOOo...ooo ooXXXoz",
" ooXXXXXXXXX.OOOOOo.oXXX ooXXXoz",
" ooXX.....XX.oXXXXO.oXXX oooooos",
" ooX.....XXX.o...Xo oXXX oooooos",
" .oooXXXXooo.X...Xo oXXX ooooosa",
"....     ....X...Xo .oo. .ooo..z",
"OOOOo .oOOo..X..XXo          .os",
"OOOoo.oXXXXo.o..XXo          oaO",
"XXXXX.oX..Xo.o..XXo .oOOOo.  oOa",
"....X.oX..Xo oXXXXo oO+++Oo  ooX",
"...XX..XXX.  oXXXXo OOoXXXo  oo.",
"XXX..        .oooo. OooX.Xo  .oX",
"                   .ooX...o  aaz",
"oo.  .ooO++++Ooo.  .oX...Xo .ooo",
"ooo .oOOOOOOOOOOo. .oX..XXo.oooo",
"XXo oooXXXXXoooOOo..oX..XXo.oXXX",
"XXo oo.........XOO..oXXXXXo.oXsX",
".Xo ooX.......XXoo..oXXXXXo.oXsz",
"XXo ooXX....XXXXoo. .ooXXXo.oXsa",
"Xo. ooXXXXXXXXXXo.   .oooo. .oXX",
"    oooooooXXXXX.           aasa",
"  ..........             .oOOoaz",
".oooOO++++++Oo.  .oOOOo. oOOOOoz",
"oXXXXXXXXXoOOOo  oOOOOOo OXXXXoa",
"XXXXXXXXXXXXoOo  ooXXXoo OXX.Xoa",
"X..........Xooo  oXXXXXX oXX..Xs",
"X..........Xooo  oXXXXXX oX...Xz",
"XX.......XXoooo  oXXXXXX oX...Xz",
".XXXXXXXoooooo.  oXXXXXo oX...Xs",
".......          .ooooo. oX...oa",
".............      ...   oX...oz"
};
