/* XPM */
static char *result[] = {
/* columns rows colors chars-per-pixel */
"32 32 8 1 ",
"  c #09080B",
". c #12111B",
"X c #1B1A2C",
"o c #20283D",
"O c #2A4C69",
"z c #2f429f",
"s c #414d86",
"a c #2d365f",
/* pixels */
"..oOOOOOOOo...ooo....... oXXX.o.",
".oooOOOOOOOo.oOOOo...ooo ooXXXo.",
" ooXXXXXXXXX.OOOOOo.oXXX ooXXXo.",
" ooXX.....XX.oXXXXO.oXXX oooooo ",
" ooX.....XXX.o...Xo oXXX oooooo ",
" .oooXXXXooo.X...Xo oXXX ooooo..",
"....     ....X...Xo .oo.z.ooo...",
"OOOOo .oOOo..X..XXo   aasszzz.oO",
"OOOoo.oXXXXo.o..XXo      aaszoOO",
"XXXXX.oX..Xo.o..XXo .oOOOo.szoOX",
"....X.oX..Xo oXXXXo oO+++OoasooX",
"...XX..XXX.  oXXXXo OOoXXXoszoo.",
"XXX..        .oooo. OooX.XosazoX",
"                   .ooX...oasasz",
"oo.  .ooO++++Ooo.  .oX...Xoszooo",
"ooo .oOOOOOOOOOOo. .oX..XXoaoooo",
"XXo oooXXXXXoooOOo..oX..XXoaoXXX",
"XXo oo.........XOO..oXXXXXoaoX.X",
".Xo ooX.......XXoo..oXXXXXoaoX..",
"XXo ooXX....XXXXoo. .ooXXXoaoX..",
"Xo. ooXXXXXXXXXXo.   .oooo.szoXX",
"    oooooooXXXXX.       asaaszzz",
"  ..........             zoOOo. ",
".oooOO++++++Oo.  .oOOOo.zoOOOOo ",
"oXXXXXXXXXoOOOo  oOOOOOozOXXXXo ",
"XXXXXXXXXXXXoOo  ooXXXoozOXX.Xo.",
"X..........Xooo  oXXXXXXsoXX..X.",
"X..........Xooo  oXXXXXXsoX...X.",
"XX.......XXoooo  oXXXXXXaoX...X.",
".XXXXXXXoooooo.  oXXXXXoaoX...X.",
".......          .ooooo.aoX...o.",
".............      ...saszX...o."
};
