/* XPM */
static char *result[] = {
/* columns rows colors chars-per-pixel */
"32 32 8 1 ",
"  c #09080B",
". c #12111B",
"X c #1B1A2C",
"o c #20283D",
"O c #2A4C69",
"z c #2f429f",
"s c #414d86",
"a c #2d365f",
/* pixels */
"..oOOOOOOOo...ooo....... oXXX.o.",
".oooOOOOOOOo.oOOOo...ooo ooXXXo.",
"aooXXXXXXXXX.OOOOOo.oXXX ooXXXo.",
"sooXX.....XX.oXXXXO.oXXX oooooo ",
"zooX.....XXX.o...Xo oXXX oooooo ",
"azoooXXXXooo.X...Xo oXXX ooooo..",
".asz     ....X...Xo .oo. .ooo...",
"aassz .oOOo..X..XXo          .oO",
"azOoo.oXXXXo.o..XXo          oOO",
"XXXXX.oX..Xo.o..XXo .oOOOo.  oOX",
"....X.oX..Xo oXXXXo oO+++Oo  ooX",
"...XX..XXX.  oXXXXo OOoXXXo  oo.",
"XXX..        .oooo. OooX.Xo  .oX",
"z                  .ooX...o     ",
"az.  .ooO++++Ooo.  .oX...Xo .ooo",
"azo .oOOOOOOOOOOo. .oX..XXo.oooo",
"zXo oooXXXXXoooOOo..oX..XXo.oXXX",
"XXo oo.........XOO..oXXXXXo.oX.X",
".Xo ooX.......XXoo..oXXXXXo.oX..",
"XXo ooXX....XXXXoo. .ooXXXo.oX..",
"Xo. ooXXXXXXXXXXo.   .oooo. .oXX",
"a   oooooooXXXXX.               ",
"sa..........             .oOOo. ",
"zoooOO++++++Oo.  .oOOOo. oOOOOo ",
"oXXXXXXXXXoOOOo  oOOOOOo OXXXXo ",
"XXXXXXXXXXXXoOo  ooXXXoo OXX.Xo.",
"X..........Xooo  oXXXXXX oXX..X.",
"X..........Xooo  oXXXXXX oX...X.",
"XX.......XXoooo  oXXXXXX oX...X.",
"aXXXXXXXoooooo.  oXXXXXo oX...X.",
"azs....          .ooooo. oX...o.",
"z............      ...   oX...o."
};
