/* XPM */
static char *_8ef82e1a2304e39c4440708b77a031br0WdrQAwmNQMFm9T[] = {
/* columns rows colors chars-per-pixel */
"32 32 5 1 ",
"  c #None",
". c #None",
"X c #FFFFFF",
"o c #None",
"O c #None",
/* pixels */
"             XXXX .X.           ",
" .XXXXXo .... ..o ... .. o .o...",
" ..... o .    ..o     XXXo .X...",
"...X.. X ..X. XoOooo.    o .XXXX",
".XXX   X ..X. ..O..o. ...o ..  X",
" ..X.. . XXX....o..O. ...X X.. X",
"  .X.X     X....o. O. .X.X XXX X",
" ....o. .. o.XXXX. o.  o.. X.. X",
" ..Xoo. XX O .X..  o. .o.. X.  X",
".X...o..X. O XXXXXXXX .o.. X.X .",
".X...oooX.XXXXXXXXXXXXXX.  ..X .",
"XXXXXo.   XXXXXXXXXXXXXX    .o .",
".   .o..XXXXXXXXXXXXXXXX . ..o..",
"XXX  o....XXXXXXXXXXXXXX..XooOoX",
"... .X    XXXXXXXXXXXXXX..X..O..",
"X.. ...X. XXXXXXXXXXXXXX..X .o..",
"XXX ...X. XXXXXXXXXXXXXXXXX .o. ",
"X.    .o. XXXXXXXXXXXXXX... .X. ",
"X. XXXoOoXXXXXXXXXXXXXXX    .X. ",
"X.   ..O..XXXXXXXXXXXXXXX..     ",
"XXX.  .O  XXXXXXXXXXXXXXX.. XXXX",
"  o. XXo..XXXoO.. .X ...o.. .   ",
"X o. ..X... ..O..      .oooX  ..",
"X o......   ..oooooXX ..o.... ..",
"X oOOOoXX.. ....X.... X.X...X ..",
"X ...o.         X .X. X.X.XXX XX",
"X  ..o.. XXoooO X .X. o.....o ..",
". OOoo.. .....O . .X..o.   .o...",
". o..X.X     .o    X..O. . .OXXX",
". o..X.OooXX .o.. .XXoO. X .O...",
"  o. ..O..   .XXX .X..o. X .O   ",
"        .... .X..X. X .O XX     "
};
