/* XPM */
static char *result[] = {
/* columns rows colors chars-per-pixel */
"32 32 20 1 ",
"  c None",
". c #0A4164",
"X c #0BA927",
"o c #055888",
"O c #0570B2",
"+ c #0471B4",
"* c #0D77BA",
"= c #0E78BB",
", c #0F7ABE",
"< c #0B7CBC",
"1 c #1179BD",
"3 c #117ABE",
"4 c #0B7CC1",
"5 c #0C7CC1",
"7 c #16D49D",
"8 c #00ECA8",
"9 c #1381C2",
"0 c #118BD4",
"w c #1492DC",
"e c #1694DE",
/* pixels */
"                                ",
"                          8     ",
"            8                   ",
"                       ,        ",
"            *     0             ",
"            * 0      *    8     ",
"         777                    ",
"    =   78877         8  5,     ",
"      77888X7           8       ",
"      788XXXX7    77777  77777  ",
"     7788XXXXX7777XXXXX777X777  ",
"     788XXXXXXXXXXXXXXXXXXX77   ",
"   1 788XXXXXXXXXXXXXXXXXXX77   ",
"     7788XXXXXXXXXXXXXXXXXX7    ",
"     7888XXXXXXXXXXXXXXXXX87  8 ",
"     778XXXXXXXXXXXXXXXXXX78    ",
"    7788XXXXXXXXXXXXXXXXXX88    ",
"     778XXXXXXXXXXXXXXXXXX88    ",
"     777XXXXXXXXXXXXXXXXXX87 44 ",
"      778XXXXXXXXXXXXXXXX887 8+ ",
"      777XXXXXXXXXXXXXXXX887    ",
"       778XXXXXXXXXXXXXXX87     ",
"      7778XXXXXXXXXXXXXX87   e  ",
"     778XXXXXXXXXXXXXXXX87      ",
"    778XXXXXXXXXXXXXXXX887      ",
"    78XXXXXXXXXXXXXXXXX887      ",
"    77777XXXX88XXXXXXXX87       ",
"       7778888888XXXXX887       ",
"         7777877777XXXX87       ",
"           77777   77777        ",
"                                ",
"                                "
};