/* XPM */
static char *result[] = {
/* columns rows colors chars-per-pixel */
"32 32 16 1 ",
"  c #30080F",
". c #430B14",
"X c #4E0C16",
"o c #5E0C10",
"O c #7B0E10",
"+ c #781714",
"@ c #882514",
"# c #A52017",
"$ c #C03716",
"% c #9A5C2B",
"& c #D25B1A",
"* c #DE923D",
"= c #A38049",
"- c #FFFFFF",
"; c #F4E063",
": c None",
/* pixels */
"::::::::::::::::::::::::::::::::",
"::::::::::::::::::::::::::::::::",
"::::::::::::::::::::::::::::::::",
"::::::::::::::::::::::::::::::::",
"::::::::::::::::::::::::::::::::",
"::::::::::::::::::::::::::::::::",
"::::::::::::::::::::::::::::::::",
"::::::::::::::::::::::::::::::::",
":::::::::::: =%%%@o. :::::::::::",
"::::::::::: -$$&&$#OX ::::::::::",
"::::::::::: -$;&;&$#X ::::::::::",
"::::::::::: -$&&&&$OX ::::::::::",
":::::::::: --$--$&&#OX :::::::::",
":::::::::: -$&-*$&&$OX :::::::::",
":::::::::: -$--*$&&&#X :::::::::",
":::::::::: -$&**$&&$#X :::::::::",
":::::::::: -$&**$&&&#X :::::::::",
":::::::::: -$&**$&&$#X :::::::::",
":::::::::: -$--**$&&#X :::::::::",
":::::::::: -$-***$&$OX :::::::::",
"::::::::::: -$$$$&&#OX :::::::::",
"::::::::::: -$*&&;&OX ::::::::::",
"::::::::::: -$$*&&#OX ::::::::::",
":::::::::::: =%%%+o. :::::::::::",
"::::::::::::::::::::::::::::::::",
"::::::::::::::::::::::::::::::::",
"::::::::::::::::::::::::::::::::",
"::::::::::::::::::::::::::::::::",
"::::::::::::::::::::::::::::::::",
"::::::::::::::::::::::::::::::::",
"::::::::::::::::::::::::::::::::",
"::::::::::::::::::::::::::::::::",
};
