/* XPM */
static char *result[] = {
/* columns rows colors chars-per-pixel */
"32 32 14 1 ",
"  c #30080F",
". c #7B0E10",
"X c #781714",
"o c #882514",
"O c #933B16",
"+ c #A52017",
"@ c #C03716",
"# c #9A5C2B",
"$ c #D25B1A",
"% c #DE923D",
"& c #A88C43",
"* c #A38049",
"= c #EDCD6E",
"- c None",
/* pixels */
"--------------------------------",
"--------------------------------",
"--------------------------------",
"--------------------------------",
"--------------------------------",
"--------------------------------",
"--------------------------------",
"--------------------------------",
"-----------  ***#Oo  -----------",
"---------- ==++++++@@ ----------",
"--------- =++$%$$$$+.@ ---------",
"-------- ==$$$$++$$$$.+ --------",
"-------- =+$$$+%$.+$$.+ --------",
"--------*+%$$+=%$.+$$$.X--------",
"--------*+$$+==%$.$$$$.X--------",
"--------*+=$$$+%$.+$$$.X--------",
"--------*+$$$$+%$.@$$$.X--------",
"--------#+%$$$+=$.+$$$.X--------",
"--------#+$$+=%%%%$.+$.X--------",
"-------- %+%+=%%%%$.+.+ --------",
"-------- %+$$+++...+$.+ --------",
"--------- %++$=$$$$.@@ ---------",
"---------- %%+++...$@ ----------",
"-----------  &&###O  -----------",
"--------------------------------",
"--------------------------------",
"--------------------------------",
"--------------------------------",
"--------------------------------",
"--------------------------------",
"--------------------------------",
"--------------------------------",

};
