/* XPM */
static char *result[] = {
/* columns rows colors chars-per-pixel */
"32 32 10 1 ",
"  c #30080F",
". c #5E0C10",
"X c #7B0E10",
"o c #A52017",
"O c #C03716",
"+ c #D25B1A",
"@ c #DE923D",
"# c #EDCD6E",
"$ c None",
"- c None",
/* pixels */
"--------------------------------",
"--------------------------------",
"--------------------------------",
"--------------------------------",
"--------------------------------",
"--------------------------------",
"--------------------------------",
"--------------------------------",
"--------$$$$$$ .. $$$$$$--------",
"--------$$$$$ #oXX $$$$$--------",
"--------$$$$$ @+oX $$$$$--------",
"--------$$$$$ @OXX $$$$$--------",
"--------$$$$$ #+oX $$$$$--------",
"--------$$$$$ @+oX $$$$$--------",
"--------$$$$$ @+XX $$$$$--------",
"--------$$$$$ @oXX $$$$$--------",
"--------$$$$$ @ooX $$$$$--------",
"--------$$$$$ @+XX $$$$$--------",
"--------$$$$$ #OXX $$$$$--------",
"--------$$$$$ @ooX $$$$$--------",
"--------$$$$$ #OXX $$$$$--------",
"--------$$$$$ @+oX $$$$$--------",
"--------$$$$$ @OoX $$$$$--------",
"--------$$$$$$ .. $$$$$$--------",
"--------------------------------",
"--------------------------------",
"--------------------------------",
"--------------------------------",
"--------------------------------",
"--------------------------------",
"--------------------------------",
"--------------------------------",
};
