/* XPM */
static char *result[] = {
/* columns rows colors chars-per-pixel */
"32 32 6 1 ",
"  c #2D2D2D",
". c #3A97EA",
"X c #458DCE",
"o c #4AA5F7",
"O c white",
"+ c None",
/* pixels */
"++++++++++++++++++++++++++++++++",
"++++++++++++++++++++++++++++++++",
"++++++++++++++++++++++++++++++++",
"++++++++++++++++++++++++++++++++",
"++++++++++++++++++++++++++++++++",
"++++++++++++++++++++++++++++++++",
"++++++++++++++++++++++++++++++++",
"++++++++++++++++++++++++++++++++",
"++++++++++++++++++++++++++++++++",
"++++++++++++++++++++++++++++++++",
"+++++++++++++.......++++++++++++",
"+++++++++++...........++++++++++",
"++++++++++..Oooooooo...+++++++++",
"+++++++++..Ooooooooooo..++++++++",
"++++++++..ooooooooooooo..+++++++",
"++++++++..ooooooooooooo..+++++++",
"+++++++..o ooooo ooooooo..++++++",
"+++++++..o ooooo ooooooo..++++++",
"+++++++..o ooooo ooooooo..++++++",
"+++++++..ooooooooooooooo..++++++",
"+++++++..ooooooooooooooo..++++++",
"+++++++..ooooooooooooooo.X++++++",
"+++++++...ooooooooooooo.XX++++++",
"++++++++...............XX+++++++",
"+++++++++XXXXXXXXXXXXXXX++++++++",
"++++++++++++++++++++++++++++++++",
"++++++++++++++++++++++++++++++++",
"++++++++++++++++++++++++++++++++",
"++++++++++++++++++++++++++++++++",
"++++++++++++++++++++++++++++++++",
"++++++++++++++++++++++++++++++++",
"++++++++++++++++++++++++++++++++"
};
